<?xml version="1.0" encoding="UTF-8" standalone="no"?>
<!DOCTYPE svg PUBLIC "-//W3C//DTD SVG 1.1//EN" "http://www.w3.org/Graphics/SVG/1.1/DTD/svg11.dtd">
<svg width="100%" height="100%" viewBox="0 0 600 600" version="1.1" xmlns="http://www.w3.org/2000/svg" xmlns:xlink="http://www.w3.org/1999/xlink" xml:space="preserve" xmlns:serif="http://www.serif.com/" style="fill-rule:evenodd;clip-rule:evenodd;stroke-linejoin:round;stroke-miterlimit:2;">
    <g transform="matrix(1.13153,0,0,1.13153,-152.613,-39.4598)">
        <g id="Logo">
            <path id="path" d="M251.748,212.698C249.454,208.873 242.232,197.491 230.833,190.924C220.706,185.089 207.327,183.212 200.835,182.963C192.144,182.63 183.274,186.442 180.016,188.797C173.305,193.648 171.513,210.09 176.517,218.749C176.518,218.75 190.194,211.221 204.51,210.974C228.074,210.568 239.681,232.36 244.457,248.076C250.54,268.095 253.931,284.762 258.169,305.147C268.196,353.367 275.264,402.297 290.819,449.254C293.769,458.159 306.069,501.857 320.394,506.241C325.397,507.772 339.552,509.089 345.127,502.912C358.429,488.174 366.795,455.919 367.763,452.783C380.302,412.13 391.486,367.824 404.437,327.3C404.787,326.206 417.005,325.718 417.911,328.231C418.987,331.211 432.374,365.41 445.874,401.415C457.093,431.336 468.074,462.628 475.03,477.145C477.627,482.564 482.138,495.861 490.157,498.569C493.339,499.644 507.368,502.943 514.437,493.469C520.512,485.329 545.001,427.394 547.724,420.384C568.68,366.421 589.092,314.233 606.747,259.164C610.139,248.586 619.973,222.414 623.355,202.436C625.244,191.272 627.422,183.542 620.931,178.547C616.993,175.518 599.199,167.796 599.05,172.637C598.823,180.017 602.967,189.39 601.695,194.042C600.171,199.613 583.591,253.582 563.993,307.236C544.755,359.904 513.452,444.639 503.409,446.043C502.265,446.203 499.651,446.129 498.008,444.095C484.618,427.529 458.819,345.133 454.967,334.485C454.545,333.319 447.533,317.862 451.729,318.1C461.148,318.634 476.896,315.986 490.751,309.733C497.477,306.697 522.805,290.997 533.787,268.726C539.128,257.896 546.377,235.864 541.357,216.154C538.573,205.222 523.629,176.361 497.958,162.56C485.761,156.003 456.695,148.622 430.053,149.48C413.835,150.002 388.739,149.197 371.506,160.457C354.401,171.633 336.572,196.114 326.07,219.461C320.154,232.614 320.992,246.373 322.139,248.475C323.456,250.892 330.804,255.656 343.011,260.043C354.32,264.107 368.95,266.36 371.532,265.741C373.681,265.226 386.223,251.409 384.651,251.022C380.196,249.927 365.164,247.751 360.454,240.116C356.166,233.164 361.887,220.846 363.618,217.113C366.446,211.013 374.425,194.213 384.133,186.301C389.503,181.925 421.823,172.584 448.617,178.837C465.849,182.858 479.689,192.097 492.373,205.887C503.691,218.193 508.299,232.917 508.308,237.94C508.315,242.055 506.788,253.45 494.443,262.093C480.063,272.162 448.495,278.314 437.348,280.384C436.194,280.599 423.066,239.828 409.1,237.291C397.136,235.117 383.529,270.435 381.273,276.756C380.166,279.857 377.367,290.139 375.481,292.462C374.65,293.485 367.387,292.3 365.993,292.799C364.325,293.396 356.694,306.201 358.483,308.219C360.677,310.694 370.918,309.669 369.971,312.705C369.513,314.172 360.652,353.159 356.828,370.156C349.31,403.573 349.904,403.617 339.18,436.234C338.118,439.466 334.485,449.623 329.037,449.851C324.341,450.047 319.364,439.899 317.838,436.644C310.179,420.305 307.219,399.733 303.474,382.469C301.272,372.322 299.414,362.102 297.266,351.944C294.352,338.161 291.568,324.346 288.288,310.645C285.479,298.91 282.374,287.243 279.002,275.657C272.618,253.718 263.536,232.349 251.748,212.698Z" style="fill:rgb(255,93,15);"/>
        </g>
    </g>
</svg>
